HIERARCHY
ROOT Hips
{
  OFFSET 53.6444 84.6703 1.66653
  CHANNELS 6 Xposition Yposition Zposition Zrotation Xrotation Yrotation
  JOINT spine
  {
    OFFSET 0 5.95438 0.342407
    CHANNELS 3 Zrotation Xrotation Yrotation
    JOINT spine1
    {
      OFFSET 0 8.85602 0
      CHANNELS 3 Zrotation Xrotation Yrotation
      JOINT spine2
      {
        OFFSET 0 8.48567 0
        CHANNELS 3 Zrotation Xrotation Yrotation
        JOINT Neck
        {
          OFFSET 0 21.7863 1.0387
          CHANNELS 3 Zrotation Xrotation Yrotation
          JOINT Head
          {
            OFFSET 0 6.5822 0
            CHANNELS 3 Zrotation Xrotation Yrotation
            End Site
            {
              OFFSET 0 15.9326 -5.25436
            }
          }
        }
        JOINT RightShoulder
        {
          OFFSET -3.57307 9.16386 -0.497525
          CHANNELS 3 Zrotation Xrotation Yrotation
          JOINT RightArm
          {
            OFFSET 0 12.0192 0
            CHANNELS 3 Zrotation Xrotation Yrotation
            JOINT RightArmRoll
            {
              OFFSET 0 6.06755 0
              CHANNELS 3 Zrotation Xrotation Yrotation
              JOINT RightForeArm
              {
                OFFSET 0 17.6726 0
                CHANNELS 3 Zrotation Xrotation Yrotation
                JOINT RightForeArmRoll
                {
                  OFFSET 0 6.80872 0
                  CHANNELS 3 Zrotation Xrotation Yrotation
                  JOINT RightHand
                  {
                    OFFSET 0 13.6636 0
                    CHANNELS 3 Zrotation Xrotation Yrotation
                    End Site
                    {
                      OFFSET 0 0 0
                    }
                  }
                }
              }
            }
          }
        }
        JOINT LeftShoulder
        {
          OFFSET 3.57307 9.16386 -0.497525
          CHANNELS 3 Zrotation Xrotation Yrotation
          JOINT LeftArm
          {
            OFFSET 0 12.0192 0
            CHANNELS 3 Zrotation Xrotation Yrotation
            JOINT LeftArmRoll
            {
              OFFSET 0 6.06755 0
              CHANNELS 3 Zrotation Xrotation Yrotation
              JOINT LeftForeArm
              {
                OFFSET 0 17.6726 0
                CHANNELS 3 Zrotation Xrotation Yrotation
                JOINT LeftForeArmRoll
                {
                  OFFSET 0 6.80872 0
                  CHANNELS 3 Zrotation Xrotation Yrotation
                  JOINT LeftHand
                  {
                    OFFSET 0 13.6636 0
                    CHANNELS 3 Zrotation Xrotation Yrotation
                    End Site
                    {
                      OFFSET 0 0 0
                    }
                  }
                }
              }
            }
          }
        }
      }
    }
  }
  JOINT RightUpLeg
  {
    OFFSET -5.27774 -0.967797 -0.811858
    CHANNELS 3 Zrotation Xrotation Yrotation
    JOINT RightUpLegRoll
    {
      OFFSET 0 16.0214 0
      CHANNELS 3 Zrotation Xrotation Yrotation
      JOINT RightLeg
      {
        OFFSET 0 -19.8401 0
        CHANNELS 3 Zrotation Xrotation Yrotation
        JOINT RightLegRoll
        {
          OFFSET 0 19.905 0
          CHANNELS 3 Zrotation Xrotation Yrotation
          JOINT RightFoot
          {
            OFFSET 0 16.5675 0
            CHANNELS 3 Zrotation Xrotation Yrotation
            JOINT RightToeBase
            {
              OFFSET 0 13.8496 0
              CHANNELS 3 Zrotation Xrotation Yrotation
              End Site
              {
                OFFSET 0.00587034 6.70727 -0.773117
              }
            }
          }
        }
      }
    }
  }
  JOINT LeftUpLeg
  {
    OFFSET 5.27774 -0.967797 -0.811858
    CHANNELS 3 Zrotation Xrotation Yrotation
    JOINT LeftUpLegRoll
    {
      OFFSET 0 16.0215 0
      CHANNELS 3 Zrotation Xrotation Yrotation
      JOINT LeftLeg
      {
        OFFSET 0 19.84 0
        CHANNELS 3 Zrotation Xrotation Yrotation
        JOINT LeftLegRoll
        {
          OFFSET 0 20.089 0
          CHANNELS 3 Zrotation Xrotation Yrotation
          JOINT LeftFoot
          {
            OFFSET 0 16.3835 0
            CHANNELS 3 Zrotation Xrotation Yrotation
            JOINT LeftToeBase
            {
              OFFSET 0 13.8496 0
              CHANNELS 3 Zrotation Xrotation Yrotation
              End Site
              {
                OFFSET -0.0263083 6.70727 -0.773117
              }
            }
          }
        }
      }
    }
  }
}
MOTION
Frames: 10
Frame Time: 0.00208333
52.9866 83.42 1.97829 -0.156516 0.298323 1.46572 -0.0877892 -2.9494 -0.0299716 -0.17566 -1.89596 -0.0513665 -0.174978 -0.250891 -0.0523406 2.0186 24.6966 -1.11999 -0.564088 10.6428 -0.242438 31.4491 -12.9234 -9.17815 53.2803 21.3227 35.9016 3.22969e-06 -7.34644e-08 1.35728e-06 -3.63976 -0.0330008 -1.99285 -1.15873e-05 3.77542e-06 -3.01161 8.03008 -4.95139 0.69763 -29.0869 -12.3183 8.63005 -54.5557 15.2057 -36.7926 2.0399e-05 2.22874e-06 2.41911e-06 3.74466 11.3479 1.69849 -8.6124e-07 -7.09225e-07 3 -8.0301 -4.95139 -0.69762 175.995 4.9131 3.12315 -180 7.0156e-15 178.982 179.057 9.45031 179.739 -1.73774e-06 -1.96155e-07 0.222516 -20.445 69.9543 21.3133 8.13649 25.2327 -3.48773 -174.594 4.66425 -2.17387 4.54188e-06 -4.6773e-06 -1.01251 -2.47738 -8.14067 0.0132469 -2.07828e-06 -6.62033e-07 -0.125018 19.3952 68.9108 -20.3075 -8.13649 25.2327 3.48773 
53.0139 83.415 1.91101 -0.156301 0.339035 1.46747 -0.0883223 -2.95736 -0.0300032 -0.176995 -1.91188 -0.0514614 -0.176309 -0.266811 -0.0523892 2.04852 24.6883 -1.1154 -0.588433 10.6454 -0.224573 31.4532 -12.9238 -9.17835 53.2754 21.3247 35.905 3.22969e-06 -7.34643e-08 1.35728e-06 -3.63976 -0.0330027 -1.99285 -1.15873e-05 3.77542e-06 -3.01161 8.03008 -4.95139 0.69763 -29.0857 -12.3155 8.62695 -54.555 15.2051 -36.7929 2.0399e-05 2.22874e-06 2.41911e-06 3.74462 11.345 1.69849 -8.6124e-07 -7.09225e-07 3 -8.0301 -4.95139 -0.69762 175.988 4.89804 3.13917 -180 7.0156e-15 178.981 179.023 9.33122 179.746 -1.73774e-06 -1.96155e-07 0.215434 -20.3782 69.8841 21.243 8.13649 25.2327 -3.48773 -174.6 4.72233 -2.16611 4.54188e-06 -4.6773e-06 -1.01241 -2.47436 -8.15438 0.0134085 -2.07828e-06 -6.62033e-07 -0.125011 19.3962 68.9118 -20.3077 -8.13649 25.2327 3.48773 
53.096 83.4002 1.74361 -0.156357 0.373646 1.46881 -0.0887365 -2.96417 -0.0300271 -0.178108 -1.9255 -0.0515428 -0.177419 -0.28043 -0.0524305 2.07834 24.6809 -1.11005 -0.612741 10.6475 -0.205969 31.4568 -12.9235 -9.17781 53.2713 21.326 35.908 3.22969e-06 -7.34644e-08 1.35728e-06 -3.63976 -0.0330046 -1.99285 -1.15873e-05 3.77542e-06 -3.01161 8.03008 -4.95139 0.69763 -29.0847 -12.3128 8.62398 -54.5552 15.203 -36.7933 2.0399e-05 2.22874e-06 2.41911e-06 3.74464 11.3464 1.69841 -8.6124e-07 -7.09225e-07 3 -8.0301 -4.95139 -0.69762 175.982 4.88707 3.15213 -180 7.0156e-15 178.98 178.995 9.23283 179.752 -1.73774e-06 -1.96155e-07 0.209553 -20.3234 69.8259 21.1851 8.13649 25.2327 -3.48773 -174.606 4.77215 -2.1596 4.54188e-06 -4.6773e-06 -1.01233 -2.47168 -8.16646 0.0135108 -2.07828e-06 -6.62033e-07 -0.125004 19.3973 68.9129 -20.3081 -8.13649 25.2327 3.48773 
53.0696 83.4035 1.79021 -0.156721 0.401093 1.46966 -0.0890127 -2.96963 -0.030042 -0.178962 -1.93641 -0.0516083 -0.17827 -0.291341 -0.0524633 2.10796 24.6745 -1.10384 -0.636922 10.649 -0.186574 31.4597 -12.9224 -9.17644 53.2682 21.3265 35.9103 3.22969e-06 -7.34643e-08 1.35728e-06 -3.63976 -0.0330065 -1.99285 -1.15873e-05 3.77542e-06 -3.01161 8.03008 -4.95139 0.69763 -29.0838 -12.3103 8.62119 -54.5563 15.1994 -36.7937 2.0399e-05 2.22874e-06 2.41911e-06 3.74472 11.3525 1.69825 -8.6124e-07 -7.09225e-07 3 -8.0301 -4.95139 -0.69762 175.978 4.88117 3.16146 -180 7.0156e-15 178.98 178.973 9.15924 179.757 -1.73774e-06 -1.96155e-07 0.205114 -20.2824 69.7821 21.1418 8.13649 25.2327 -3.48773 -174.609 4.81223 -2.15455 4.54188e-06 -4.6773e-06 -1.01225 -2.46939 -8.17662 0.0135464 -2.07828e-06 -6.62033e-07 -0.124997 19.3985 68.9141 -20.3088 -8.13649 25.2327 3.48773 
53.0989 83.4006 1.73272 -0.157294 0.42356 1.47011 -0.0891542 -2.97418 -0.0300487 -0.179626 -1.94551 -0.0516627 -0.178932 -0.300439 -0.0524903 2.13769 24.6692 -1.09675 -0.661134 10.6499 -0.166233 31.462 -12.9203 -9.17406 53.266 21.3259 35.912 3.22969e-06 -7.34643e-08 1.35728e-06 -3.63976 -0.0330085 -1.99285 -1.15873e-05 3.77542e-06 -3.01161 8.03008 -4.95139 0.69763 -29.0831 -12.3077 8.61838 -54.5586 15.1936 -36.7943 2.0399e-05 2.22874e-06 2.41911e-06 3.74488 11.3642 1.69797 -8.6124e-07 -7.09225e-07 3 -8.0301 -4.95139 -0.69762 175.976 4.88075 3.16784 -180 7.0156e-15 178.979 178.958 9.10641 179.76 -1.73773e-06 -1.96155e-07 0.201854 -20.2529 69.7501 21.1105 8.13649 25.2327 -3.48773 -174.612 4.84567 -2.1504 4.54188e-06 -4.6773e-06 -1.01219 -2.46728 -8.1856 0.0135183 -2.07828e-06 -6.62033e-07 -0.124989 19.3999 68.9156 -20.3098 -8.13649 25.2327 3.48773 
53.0971 83.3975 1.72843 -0.157959 0.443882 1.47031 -0.0891858 -2.97838 -0.0300493 -0.180199 -1.95392 -0.0517124 -0.179502 -0.308848 -0.0525151 2.16795 24.665 -1.08892 -0.685598 10.6502 -0.144896 31.4641 -12.9173 -9.17066 53.2643 21.3242 35.9135 3.22969e-06 -7.34644e-08 1.35728e-06 -3.63976 -0.0330104 -1.99285 -1.15873e-05 3.77542e-06 -3.01161 8.03008 -4.95139 0.69763 -29.0824 -12.305 8.61534 -54.5621 15.1853 -36.7949 2.0399e-05 2.22874e-06 2.41911e-06 3.74511 11.3818 1.69756 -8.6124e-07 -7.09225e-07 3 -8.0301 -4.95139 -0.69762 175.973 4.88497 3.17245 -180 7.0156e-15 178.979 178.946 9.06656 179.763 -1.73774e-06 -1.96154e-07 0.199305 -20.2303 69.7253 21.0865 8.13649 25.2327 -3.48773 -174.615 4.87637 -2.1465 4.54188e-06 -4.6773e-06 -1.01213 -2.4651 -8.19431 0.0134372 -2.07828e-06 -6.62033e-07 -0.124982 19.4016 68.9174 -20.3111 -8.13649 25.2327 3.48773 
53.0166 83.4156 1.95226 -0.158728 0.461962 1.47027 -0.08912 -2.98221 -0.0300444 -0.180679 -1.96158 -0.0517572 -0.179981 -0.316508 -0.0525375 2.19867 24.6617 -1.08042 -0.710316 10.65 -0.122663 31.4659 -12.9134 -9.16637 53.263 21.3214 35.9148 3.22969e-06 -7.34643e-08 1.35728e-06 -3.63976 -0.0330123 -1.99285 -1.15873e-05 3.77542e-06 -3.01161 8.03008 -4.95139 0.69763 -29.0818 -12.3022 8.61214 -54.5668 15.175 -36.7955 2.0399e-05 2.22874e-06 2.41911e-06 3.74541 11.4045 1.69703 -8.6124e-07 -7.09225e-07 3 -8.0301 -4.95139 -0.69762 175.972 4.89293 3.17544 -180 7.0156e-15 178.979 178.937 9.0383 179.764 -1.73773e-06 -1.96154e-07 0.197398 -20.214 69.707 21.069 8.13649 25.2327 -3.48773 -174.617 4.90419 -2.14291 4.54188e-06 -4.6773e-06 -1.01208 -2.46289 -8.20267 0.0133073 -2.07828e-06 -6.62033e-07 -0.124974 19.4035 68.9194 -20.3127 -8.13649 25.2327 3.48773 
53.0364 83.4122 1.89581 -0.159613 0.477706 1.47003 -0.0889694 -2.98564 -0.0300345 -0.181067 -1.96843 -0.0517969 -0.180367 -0.323358 -0.0525574 2.22984 24.6592 -1.07133 -0.73529 10.6493 -0.0996351 31.4675 -12.9088 -9.16133 53.2621 21.3178 35.9159 3.22969e-06 -7.34643e-08 1.35728e-06 -3.63976 -0.0330142 -1.99285 -1.15873e-05 3.77542e-06 -3.01161 8.03008 -4.95139 0.69763 -29.0811 -12.2992 8.60879 -54.5726 15.1629 -36.7962 2.0399e-05 2.22874e-06 2.41911e-06 3.74578 11.4318 1.69641 -8.6124e-07 -7.09225e-07 3 -8.0301 -4.95139 -0.69762 175.97 4.90373 3.17695 -180 7.01559e-15 178.979 178.931 9.02025 179.766 -1.73774e-06 -1.96154e-07 0.196062 -20.2033 69.6945 21.0573 8.13649 25.2327 -3.48773 -174.619 4.92897 -2.1397 4.54188e-06 -4.6773e-06 -1.01203 -2.4607 -8.21061 0.0131327 -2.07828e-06 -6.62033e-07 -0.124966 19.4057 68.9216 -20.3145 -8.13649 25.2327 3.48773 
53.0948 83.3951 1.72666 -0.160624 0.49102 1.46961 -0.0887467 -2.98863 -0.0300204 -0.181363 -1.97441 -0.0518313 -0.180661 -0.329339 -0.0525744 2.26141 24.6573 -1.06174 -0.76052 10.6482 -0.0759123 31.469 -12.9036 -9.15567 53.2615 21.3134 35.9168 3.22969e-06 -7.34643e-08 1.35728e-06 -3.63976 -0.0330161 -1.99285 -1.15873e-05 3.77542e-06 -3.01161 8.03008 -4.95139 0.69763 -29.0803 -12.2962 8.60536 -54.5792 15.1492 -36.7968 2.0399e-05 2.22874e-06 2.41911e-06 3.74619 11.4628 1.69569 -8.6124e-07 -7.09225e-07 3 -8.0301 -4.95139 -0.69762 175.97 4.91649 3.17714 -180 7.01559e-15 178.979 178.928 9.01102 179.766 -1.73774e-06 -1.96154e-07 0.195228 -20.1973 69.6871 21.0506 8.13649 25.2327 -3.48773 -174.62 4.95055 -2.13693 4.54188e-06 -4.6773e-06 -1.01198 -2.45858 -8.21804 0.0129178 -2.07828e-06 -6.62033e-07 -0.124958 19.4079 68.924 -20.3166 -8.13649 25.2327 3.48773 
53.0757 83.3897 1.78601 -0.161773 0.50181 1.46903 -0.0884645 -2.99116 -0.0300025 -0.181566 -1.97946 -0.0518601 -0.180862 -0.33439 -0.0525885 2.29333 24.6561 -1.05173 -0.786011 10.6468 -0.0515953 31.4704 -12.898 -9.14953 53.261 21.3085 35.9177 3.22969e-06 -7.34644e-08 1.35728e-06 -3.63976 -0.033018 -1.99285 -1.15873e-05 3.77542e-06 -3.01161 8.03008 -4.95139 0.69763 -29.0795 -12.2931 8.60188 -54.5866 15.1344 -36.7974 2.0399e-05 2.22874e-06 2.41911e-06 3.74665 11.4969 1.69491 -8.6124e-07 -7.09225e-07 3 -8.0301 -4.95139 -0.69762 175.97 4.93033 3.17616 -180 7.01559e-15 178.979 178.927 9.00922 179.766 -1.73774e-06 -1.96154e-07 0.194825 -20.1955 69.684 21.0482 8.13649 25.2327 -3.48773 -174.62 4.96877 -2.13467 4.54188e-06 -4.6773e-06 -1.01195 -2.45658 -8.2249 0.0126666 -2.07828e-06 -6.62033e-07 -0.124949 19.4103 68.9265 -20.3187 -8.13649 25.2327 3.48773 
